HIERARCHY
ROOT Pelvis
{
	OFFSET -0.001795 -0.223333 0.028219
	CHANNELS 6 Xposition Yposition Zposition Zrotation Yrotation Xrotation 
	JOINT Left_hip
	{
		OFFSET 0.069520 -0.091406 -0.006815
		CHANNELS 3 Zrotation Yrotation Xrotation
		JOINT Left_knee
		{
			OFFSET 0.034277 -0.375199 -0.004496
			CHANNELS 3 Zrotation Yrotation Xrotation
			JOINT Left_ankle
			{
				OFFSET -0.013596 -0.397960 -0.043693
				CHANNELS 3 Zrotation Yrotation Xrotation
				JOINT Left_foot
				{
					OFFSET 0.026358 -0.055791 0.119288
					CHANNELS 3 Zrotation Yrotation Xrotation
					End Site
					{
						OFFSET 0.000000 0.000000 0.000000
					}
				}
			}
		}
	}
	JOINT Right_hip
	{
		OFFSET -0.067670 -0.090522 -0.004320
		CHANNELS 3 Zrotation Yrotation Xrotation
		JOINT Right_knee
		{
			OFFSET -0.038290 -0.382569 -0.008850
			CHANNELS 3 Zrotation Yrotation Xrotation
			JOINT Right_ankle
			{
				OFFSET 0.015774 -0.398415 -0.042312
				CHANNELS 3 Zrotation Yrotation Xrotation
				JOINT Right_foot
				{
					OFFSET -0.025372 -0.048144 0.123348
					CHANNELS 3 Zrotation Yrotation Xrotation
					End Site
					{
						OFFSET 0.000000 0.000000 0.000000
					}
				}
			}
		}
	}
	JOINT Spine1
	{
		OFFSET -0.002533 0.108963 -0.026696
		CHANNELS 3 Zrotation Yrotation Xrotation
		JOINT Spine2
		{
			OFFSET 0.005487 0.135180 0.001092
			CHANNELS 3 Zrotation Yrotation Xrotation
			JOINT Spine3
			{
				OFFSET 0.001457 0.052922 0.025425
				CHANNELS 3 Zrotation Yrotation Xrotation
				JOINT Neck
				{
					OFFSET -0.002778 0.213870 -0.042857
					CHANNELS 3 Zrotation Yrotation Xrotation
					JOINT Head
					{
						OFFSET 0.005152 0.064970 0.051349
						CHANNELS 3 Zrotation Yrotation Xrotation
						End Site
						{
							OFFSET 0.000000 0.000000 0.000000
						}
					}
				}
				JOINT Left_collar
				{
					OFFSET 0.078845 0.121749 -0.034090
					CHANNELS 3 Zrotation Yrotation Xrotation
					JOINT Left_shoulder
					{
						OFFSET 0.090977 0.030469 -0.008868
						CHANNELS 3 Zrotation Yrotation Xrotation
						JOINT Left_elbow
						{
							OFFSET 0.259612 -0.012772 -0.027456
							CHANNELS 3 Zrotation Yrotation Xrotation
							JOINT Left_wrist
							{
								OFFSET 0.249234 0.008986 -0.001171
								CHANNELS 3 Zrotation Yrotation Xrotation
								JOINT Left_palm
								{
									OFFSET 0.084042 -0.008162 -0.014945
									CHANNELS 3 Zrotation Yrotation Xrotation
									End Site
									{
										OFFSET 0.000000 0.000000 0.000000
									}
								}
							}
						}
					}
				}
				JOINT Right_collar
				{
					OFFSET -0.081759 0.118833 -0.038615
					CHANNELS 3 Zrotation Yrotation Xrotation
					JOINT Right_shoulder
					{
						OFFSET -0.096012 0.032551 -0.009143
						CHANNELS 3 Zrotation Yrotation Xrotation
						JOINT Right_elbow
						{
							OFFSET -0.253742 -0.013329 -0.021401
							CHANNELS 3 Zrotation Yrotation Xrotation
							JOINT Right_wrist
							{
								OFFSET -0.255298 0.007772 -0.005559
								CHANNELS 3 Zrotation Yrotation Xrotation
								JOINT Right_palm
								{
									OFFSET -0.084622 -0.006117 -0.010315
									CHANNELS 3 Zrotation Yrotation Xrotation
									End Site
									{
										OFFSET 0.000000 0.000000 0.000000
									}
								}
							}
						}
					}
				}
			}
		}
	}
}
MOTION
Frames: 5
Frame Time: 0.016667
-0.002411 0.773278 0.026288 1.574432 -7.857780 2.877307 32.001041 9.189789 -32.767845 2.802971 0.307370 39.641602 -11.521770 7.907836 3.106248 16.073984 16.533514 -19.189411 11.674223 -21.696415 -29.613670 37.950344 -16.676262 34.389072 19.576014 -1.895930 -1.933516 -23.021591 -9.132444 -16.170748 -11.422462 4.506047 13.817904 -1.408108 -4.864433 -5.664226 2.421842 -3.566192 0.393981 -5.251979 2.096331 -8.124340 9.292776 8.914297 -2.683452 14.384567 -18.728504 -14.033996 -62.401070 -61.898361 21.047071 112.623657 -69.889282 -92.769485 5.473179 -2.573578 -43.733845 0.000000 0.000000 0.000000 -16.861439 5.343796 -10.395776 39.095844 23.805542 -3.511050 -126.454567 56.901562 -97.058304 2.958946 1.817957 -10.794382 0.000000 0.000000 0.000000 
-0.003476 0.760892 0.025452 0.826939 -7.982414 3.311442 33.336472 9.853113 -33.625362 3.008939 0.559590 40.731224 -11.436707 7.177327 3.068565 15.341200 18.399792 -19.576769 12.800096 -21.666611 -30.938019 38.721722 -16.964216 35.811684 19.198391 -1.097488 -4.043912 -22.816387 -10.020299 -15.962951 -11.657729 4.475357 14.069138 -1.290326 -4.743082 -5.724420 2.671576 -4.050540 0.202580 -4.916510 2.681196 -7.827152 9.599316 8.438783 -1.947246 14.360772 -18.792589 -13.858724 -63.419827 -62.790245 21.148134 114.402893 -68.880997 -94.332764 5.963523 -2.364025 -45.785290 0.000000 0.000000 0.000000 -16.981405 5.134893 -10.931030 40.137543 22.733967 -3.024423 -125.376534 55.827126 -96.662529 3.052899 1.504395 -10.691948 0.000000 0.000000 0.000000 
-0.004508 0.752041 0.024746 0.275703 -8.237940 3.661284 34.429741 10.488396 -34.144703 3.177291 0.858629 41.554512 -11.481171 6.510703 2.854514 15.056591 20.045269 -19.882832 13.831263 -21.655548 -32.132496 39.009167 -17.338629 37.320232 18.561054 -0.291023 -5.929304 -22.371326 -10.846634 -15.778774 -12.011392 4.395475 14.258490 -1.247389 -4.584373 -5.611951 2.858082 -4.454062 -0.115219 -4.693714 3.094527 -7.489889 9.926661 8.098529 -1.499786 14.138312 -18.978369 -13.486786 -64.018219 -63.317959 21.098261 116.364822 -67.907188 -95.917343 6.501254 -2.054080 -47.260845 0.000000 0.000000 0.000000 -16.888367 5.104715 -11.295732 41.242710 21.815800 -2.480955 -124.973686 54.955784 -96.500320 3.008267 1.222756 -10.742023 0.000000 0.000000 0.000000 
-0.005463 0.747484 0.024223 0.117667 -8.764293 3.840773 35.052711 11.034081 -34.007023 3.263799 1.257605 41.843979 -11.781501 5.969791 2.291754 15.706381 21.257925 -19.967573 14.676119 -21.713696 -33.070133 38.327736 -17.842848 39.011181 17.438913 0.536761 -7.367543 -21.441711 -11.550173 -15.644947 -12.601684 4.215948 14.325112 -1.352622 -4.350595 -5.154980 2.916790 -4.696947 -0.682379 -4.701258 3.167752 -7.078421 10.306606 8.035769 -1.624301 13.513783 -19.402399 -12.717090 -63.720997 -63.118279 20.685780 118.834846 -67.009026 -97.687027 7.144847 -1.569963 -47.584538 0.000000 0.000000 0.000000 -16.372570 5.433975 -11.318376 42.495884 21.208275 -1.793844 -125.842224 54.495872 -96.718613 2.688338 1.003926 -11.095405 0.000000 0.000000 0.000000 
-0.006557 0.743658 0.023638 0.132804 -9.371282 4.025073 35.512814 11.641689 -33.859203 3.174059 1.553970 42.154449 -12.371565 5.771836 1.717764 17.084394 22.025166 -19.817291 15.453093 -21.710382 -34.103428 37.310368 -18.453402 40.846443 16.384611 1.188838 -8.296402 -20.533640 -12.280091 -15.561764 -13.271323 3.939997 14.245630 -1.514350 -4.164613 -4.695951 2.932479 -4.862734 -1.218278 -4.756814 2.949446 -6.868099 10.594037 8.063169 -1.918043 12.705448 -19.734619 -11.982349 -63.011021 -62.455746 20.015942 121.903572 -66.220268 -100.069717 7.838434 -1.018733 -47.237915 0.000000 0.000000 0.000000 -15.824359 5.879334 -11.136543 43.470779 20.949734 -1.001456 -127.413033 54.440811 -97.310928 2.249063 0.754152 -11.108906 0.000000 0.000000 0.000000 
